<svg width="27" height="24" viewBox="0 0 27 24" fill="none" xmlns="http://www.w3.org/2000/svg">
<path d="M26.2969 6.375C26.7656 6.84375 27 7.42187 27 8.10938C27 8.76562 26.7656 9.32812 26.2969 9.79688L18.8438 17.2969C18.6875 17.4531 18.4062 17.6719 18 17.9531V21.75C18 22.375 17.7812 22.9062 17.3438 23.3438C16.9062 23.7812 16.375 24 15.75 24H2.25C1.625 24 1.09375 23.7812 0.65625 23.3438C0.21875 22.9062 0 22.375 0 21.75V2.25C0 1.84375 0.09375 1.46875 0.28125 1.125C0.5 0.78125 0.78125 0.515625 1.125 0.328125C1.46875 0.109375 1.84375 0 2.25 0H11.8125C12.4375 0 12.9688 0.21875 13.4062 0.65625L17.3438 4.59375C17.7812 5.03125 18 5.5625 18 6.1875V8.90625L21.7031 5.20312C22.1719 4.73438 22.7344 4.5 23.3906 4.5C24.0781 4.5 24.6562 4.73438 25.125 5.20312L26.2969 6.375ZM12 1.54688V6H16.5C16.4375 5.875 16.3594 5.76562 16.2656 5.67188L12.3281 1.73438C12.2344 1.64062 12.125 1.57813 12 1.54688ZM16.5 21.75V18.8438C15.5312 19.2812 14.5312 19.5 13.5 19.5H12C11.1875 19.5 10.5938 19.125 10.2188 18.375C10.125 18.1875 9.96875 18.0938 9.75 18.0938C9.53125 18.0938 9.375 18.1875 9.28125 18.375L8.90625 19.0781C8.78125 19.3906 8.54688 19.5312 8.20312 19.5C7.85938 19.4688 7.64062 19.2969 7.54688 18.9844L6.75 16.6406L6.23438 18.0938C6.10938 18.5312 5.85938 18.875 5.48438 19.125C5.14062 19.375 4.75 19.5 4.3125 19.5H3.75C3.53125 19.5 3.34375 19.4375 3.1875 19.3125C3.0625 19.1562 3 18.9688 3 18.75C3 18.5312 3.0625 18.3594 3.1875 18.2344C3.34375 18.0781 3.53125 18 3.75 18H4.3125C4.5625 18 4.73438 17.875 4.82812 17.625L5.67188 15.0938C5.85938 14.5625 6.21875 14.2969 6.75 14.2969C7.28125 14.2969 7.64062 14.5625 7.82812 15.0938L8.48438 17.0156C8.92188 16.6406 9.46875 16.5312 10.125 16.6875C10.8125 16.8125 11.2969 17.1562 11.5781 17.7188C11.6719 17.875 11.8125 17.9688 12 18C12 15.9062 12.75 14.125 14.25 12.6562L16.5 10.4062V7.5H11.625C11.3125 7.5 11.0469 7.39063 10.8281 7.17188C10.6094 6.95312 10.5 6.6875 10.5 6.375V1.5H2.25C2.03125 1.5 1.84375 1.57813 1.6875 1.73438C1.5625 1.85938 1.5 2.03125 1.5 2.25V21.75C1.5 21.9688 1.5625 22.1406 1.6875 22.2656C1.84375 22.4219 2.03125 22.5 2.25 22.5H15.75C15.9688 22.5 16.1406 22.4219 16.2656 22.2656C16.4219 22.1406 16.5 21.9688 16.5 21.75ZM17.7656 16.2188L23.3906 10.5469L20.9531 8.10938L15.2812 13.6875C14.0938 14.875 13.5 16.3125 13.5 18C14.1875 18 14.9531 17.8281 15.7969 17.4844C16.6406 17.1406 17.2969 16.7188 17.7656 16.2188ZM25.2188 8.76562C25.4062 8.57812 25.5 8.35938 25.5 8.10938C25.5 7.82812 25.4062 7.60937 25.2188 7.45312L24.0469 6.28125C23.8906 6.09375 23.6719 6 23.3906 6C23.1406 6 22.9219 6.09375 22.7344 6.28125L21.75 7.26562L24.2344 9.75L25.2188 8.76562Z" fill="#FFA800"/>
</svg>
