<svg width="21" height="24" viewBox="0 0 21 24" fill="none" xmlns="http://www.w3.org/2000/svg">
<path d="M18.75 3C19.375 3 19.9062 3.21875 20.3438 3.65625C20.7812 4.09375 21 4.625 21 5.25V21.75C21 22.375 20.7812 22.9062 20.3438 23.3438C19.9062 23.7812 19.375 24 18.75 24H2.25C1.625 24 1.09375 23.7812 0.65625 23.3438C0.21875 22.9062 0 22.375 0 21.75V5.25C0 4.625 0.21875 4.09375 0.65625 3.65625C1.09375 3.21875 1.625 3 2.25 3H4.5V0.5625C4.5 0.1875 4.6875 0 5.0625 0H5.4375C5.8125 0 6 0.1875 6 0.5625V3H15V0.5625C15 0.1875 15.1875 0 15.5625 0H15.9375C16.3125 0 16.5 0.1875 16.5 0.5625V3H18.75ZM2.25 4.5C2.03125 4.5 1.84375 4.57813 1.6875 4.73438C1.5625 4.85938 1.5 5.03125 1.5 5.25V7.5H19.5V5.25C19.5 5.03125 19.4219 4.85938 19.2656 4.73438C19.1406 4.57813 18.9688 4.5 18.75 4.5H2.25ZM18.75 22.5C18.9688 22.5 19.1406 22.4219 19.2656 22.2656C19.4219 22.1406 19.5 21.9688 19.5 21.75V9H1.5V21.75C1.5 21.9688 1.5625 22.1406 1.6875 22.2656C1.84375 22.4219 2.03125 22.5 2.25 22.5H18.75ZM6.9375 15H5.0625C4.6875 15 4.5 14.8125 4.5 14.4375V12.5625C4.5 12.1875 4.6875 12 5.0625 12H6.9375C7.3125 12 7.5 12.1875 7.5 12.5625V14.4375C7.5 14.8125 7.3125 15 6.9375 15ZM11.4375 15H9.5625C9.1875 15 9 14.8125 9 14.4375V12.5625C9 12.1875 9.1875 12 9.5625 12H11.4375C11.8125 12 12 12.1875 12 12.5625V14.4375C12 14.8125 11.8125 15 11.4375 15ZM15.9375 15H14.0625C13.6875 15 13.5 14.8125 13.5 14.4375V12.5625C13.5 12.1875 13.6875 12 14.0625 12H15.9375C16.3125 12 16.5 12.1875 16.5 12.5625V14.4375C16.5 14.8125 16.3125 15 15.9375 15ZM11.4375 19.5H9.5625C9.1875 19.5 9 19.3125 9 18.9375V17.0625C9 16.6875 9.1875 16.5 9.5625 16.5H11.4375C11.8125 16.5 12 16.6875 12 17.0625V18.9375C12 19.3125 11.8125 19.5 11.4375 19.5ZM6.9375 19.5H5.0625C4.6875 19.5 4.5 19.3125 4.5 18.9375V17.0625C4.5 16.6875 4.6875 16.5 5.0625 16.5H6.9375C7.3125 16.5 7.5 16.6875 7.5 17.0625V18.9375C7.5 19.3125 7.3125 19.5 6.9375 19.5ZM15.9375 19.5H14.0625C13.6875 19.5 13.5 19.3125 13.5 18.9375V17.0625C13.5 16.6875 13.6875 16.5 14.0625 16.5H15.9375C16.3125 16.5 16.5 16.6875 16.5 17.0625V18.9375C16.5 19.3125 16.3125 19.5 15.9375 19.5Z" fill="#F64E60"/>
</svg>
