<svg width="18" height="24" viewBox="0 0 18 24" fill="none" xmlns="http://www.w3.org/2000/svg">
<path d="M9.23438 17.0156C9.67188 16.6406 10.2188 16.5312 10.875 16.6875C11.5625 16.8125 12.0469 17.1406 12.3281 17.6719C12.4219 17.8906 12.5781 18 12.7969 18H13.5C13.7188 18 13.8906 18.0781 14.0156 18.2344C14.1719 18.3594 14.25 18.5312 14.25 18.75C14.25 18.9688 14.1719 19.1562 14.0156 19.3125C13.8906 19.4375 13.7188 19.5 13.5 19.5H12.7969C11.9531 19.5 11.3438 19.125 10.9688 18.375C10.875 18.1875 10.7188 18.0938 10.5 18.0938C10.2812 18.0938 10.125 18.1875 10.0312 18.375L9.65625 19.0781C9.53125 19.3594 9.3125 19.5 9 19.5C8.96875 19.5 8.95312 19.5 8.95312 19.5C8.60938 19.4688 8.39062 19.2969 8.29688 18.9844L7.5 16.6406L6.98438 18.0938C6.85938 18.5312 6.60938 18.875 6.23438 19.125C5.89062 19.375 5.5 19.5 5.0625 19.5H4.5C4.28125 19.5 4.09375 19.4375 3.9375 19.3125C3.8125 19.1562 3.75 18.9688 3.75 18.75C3.75 18.5312 3.8125 18.3594 3.9375 18.2344C4.09375 18.0781 4.28125 18 4.5 18H5.0625C5.3125 18 5.48438 17.875 5.57812 17.625L6.42188 15.0938C6.60938 14.5625 6.96875 14.2969 7.5 14.2969C8.03125 14.2969 8.39062 14.5625 8.57812 15.0938L9.23438 17.0156ZM3.375 4.5C3.125 4.5 3 4.375 3 4.125V3.375C3 3.125 3.125 3 3.375 3H8.625C8.875 3 9 3.125 9 3.375V4.125C9 4.375 8.875 4.5 8.625 4.5H3.375ZM9 7.125C9 7.375 8.875 7.5 8.625 7.5H3.375C3.125 7.5 3 7.375 3 7.125V6.375C3 6.125 3.125 6 3.375 6H8.625C8.875 6 9 6.125 9 6.375V7.125ZM17.3438 4.59375C17.7812 5.03125 18 5.5625 18 6.1875V21.75C18 22.375 17.7812 22.9062 17.3438 23.3438C16.9062 23.7812 16.375 24 15.75 24H2.25C1.625 24 1.09375 23.7812 0.65625 23.3438C0.21875 22.9062 0 22.375 0 21.75V2.25C0 1.84375 0.09375 1.46875 0.28125 1.125C0.5 0.78125 0.78125 0.515625 1.125 0.328125C1.46875 0.109375 1.84375 0 2.25 0H11.8125C12.4375 0 12.9688 0.21875 13.4062 0.65625L17.3438 4.59375ZM12 1.54688V6H16.5C16.4375 5.875 16.3594 5.76562 16.2656 5.67188L12.3281 1.73438C12.2344 1.64062 12.125 1.57813 12 1.54688ZM16.5 21.75V7.5H11.625C11.3125 7.5 11.0469 7.39063 10.8281 7.17188C10.6094 6.95312 10.5 6.6875 10.5 6.375V1.5H2.25C2.03125 1.5 1.84375 1.57813 1.6875 1.73438C1.5625 1.85938 1.5 2.03125 1.5 2.25V21.75C1.5 21.9688 1.5625 22.1406 1.6875 22.2656C1.84375 22.4219 2.03125 22.5 2.25 22.5H15.75C15.9688 22.5 16.1406 22.4219 16.2656 22.2656C16.4219 22.1406 16.5 21.9688 16.5 21.75Z" fill="#1BC5BD"/>
</svg>
