<svg width="20" height="27" viewBox="0 0 20 27" fill="none" xmlns="http://www.w3.org/2000/svg">
<path d="M14.2188 12.4375C14.4896 12.4375 14.625 12.5729 14.625 12.8438V13.6562C14.625 13.9271 14.4896 14.0625 14.2188 14.0625H8.53125C8.26042 14.0625 8.125 13.9271 8.125 13.6562V12.8438C8.125 12.5729 8.26042 12.4375 8.53125 12.4375H14.2188ZM14.2188 17.3125C14.4896 17.3125 14.625 17.4479 14.625 17.7188V18.5312C14.625 18.8021 14.4896 18.9375 14.2188 18.9375H8.53125C8.26042 18.9375 8.125 18.8021 8.125 18.5312V17.7188C8.125 17.4479 8.26042 17.3125 8.53125 17.3125H14.2188ZM4.82422 12.3867C5.0612 12.1497 5.34896 12.0312 5.6875 12.0312C6.02604 12.0312 6.3138 12.1497 6.55078 12.3867C6.78776 12.6237 6.90625 12.9115 6.90625 13.25C6.90625 13.5885 6.78776 13.8763 6.55078 14.1133C6.3138 14.3503 6.02604 14.4688 5.6875 14.4688C5.34896 14.4688 5.0612 14.3503 4.82422 14.1133C4.58724 13.8763 4.46875 13.5885 4.46875 13.25C4.46875 12.9115 4.58724 12.6237 4.82422 12.3867ZM4.82422 17.2617C5.0612 17.0247 5.34896 16.9062 5.6875 16.9062C6.02604 16.9062 6.3138 17.0247 6.55078 17.2617C6.78776 17.4987 6.90625 17.7865 6.90625 18.125C6.90625 18.4635 6.78776 18.7513 6.55078 18.9883C6.3138 19.2253 6.02604 19.3438 5.6875 19.3438C5.34896 19.3438 5.0612 19.2253 4.82422 18.9883C4.58724 18.7513 4.46875 18.4635 4.46875 18.125C4.46875 17.7865 4.58724 17.4987 4.82422 17.2617ZM17.0625 3.5C17.7396 3.5 18.3151 3.73698 18.7891 4.21094C19.263 4.6849 19.5 5.26042 19.5 5.9375V23.8125C19.5 24.4896 19.263 25.0651 18.7891 25.5391C18.3151 26.013 17.7396 26.25 17.0625 26.25H2.4375C1.76042 26.25 1.1849 26.013 0.710938 25.5391C0.236979 25.0651 0 24.4896 0 23.8125V5.9375C0 5.26042 0.236979 4.6849 0.710938 4.21094C1.1849 3.73698 1.76042 3.5 2.4375 3.5H6.95703C6.92318 3.36458 6.90625 3.22917 6.90625 3.09375C6.90625 2.3151 7.17708 1.65495 7.71875 1.11328C8.29427 0.53776 8.97135 0.25 9.75 0.25C10.5286 0.25 11.1888 0.53776 11.7305 1.11328C12.306 1.65495 12.5938 2.3151 12.5938 3.09375C12.5938 3.22917 12.5768 3.36458 12.543 3.5H17.0625ZM10.6133 2.23047C10.3763 1.99349 10.0885 1.875 9.75 1.875C9.41146 1.875 9.1237 1.99349 8.88672 2.23047C8.64974 2.46745 8.53125 2.75521 8.53125 3.09375C8.53125 3.43229 8.64974 3.72005 8.88672 3.95703C9.1237 4.19401 9.41146 4.3125 9.75 4.3125C10.0885 4.3125 10.3763 4.19401 10.6133 3.95703C10.8503 3.72005 10.9688 3.43229 10.9688 3.09375C10.9688 2.75521 10.8503 2.46745 10.6133 2.23047ZM17.875 23.8125V5.9375C17.875 5.70052 17.7904 5.51432 17.6211 5.37891C17.4857 5.20964 17.2995 5.125 17.0625 5.125H14.625V6.14062C14.625 6.54688 14.4219 6.75 14.0156 6.75H5.48438C5.07812 6.75 4.875 6.54688 4.875 6.14062V5.125H2.4375C2.20052 5.125 1.9974 5.20964 1.82812 5.37891C1.69271 5.51432 1.625 5.70052 1.625 5.9375V23.8125C1.625 24.0495 1.69271 24.2357 1.82812 24.3711C1.9974 24.5404 2.20052 24.625 2.4375 24.625H17.0625C17.2995 24.625 17.4857 24.5404 17.6211 24.3711C17.7904 24.2357 17.875 24.0495 17.875 23.8125Z" fill="#3699FF"/>
</svg>
